<?xml version="1.0" encoding="iso-8859-1"?>
<!-- Uploaded to: SVG Repo, www.svgrepo.com, Generator: SVG Repo Mixer Tools -->
<svg version="1.1" id="Layer_1" xmlns="http://www.w3.org/2000/svg" xmlns:xlink="http://www.w3.org/1999/xlink"
	 viewBox="0 0 392.792 392.792" xml:space="preserve">
<rect x="174.966" y="327.564" style="fill:#FFC10D;" width="43.184" height="43.249"/>
<path style="fill:#56ACE0;" d="M332.186,147.653L332.186,147.653c-13.188-6.077-20.751-20.17-18.618-34.521v-0.065
	c0.453-2.909,0.711-5.947,0.711-8.792c0-33.487-27.927-60.638-62.19-60.638c-24.566,0-46.998,14.222-56.889,36.137l0,0
	c-10.15,22.368-40.339,25.988-55.467,6.659l0,0c-5.56-7.111-13.834-11.184-22.82-11.184c-10.99,0-20.493,6.206-25.341,15.192h44.412
	c6.141,0,11.313,4.978,11.184,11.119c-0.129,5.947-4.913,10.667-10.925,10.667H88.921l2.909,17.325
	c0.776,4.784-2.133,9.374-6.788,10.731h17.648c6.141,0,11.313,4.978,11.184,11.119c-0.129,5.947-4.913,10.667-10.925,10.667H46.384
	c-1.616,3.62-2.651,7.564-2.651,11.636c0,15.968,12.994,28.962,28.962,28.962h247.337c15.968,0,28.962-12.994,28.962-28.962
	C349.123,162.715,342.465,152.372,332.186,147.653z"/>
<path style="fill:#194F82;" d="M372.461,338.295H239.935v-21.657c0-6.012-4.848-10.925-10.925-10.925h-21.721v-59.216h112.743
	c40.016,0,72.663-32.517,72.663-72.663c0-25.471-13.511-49.067-35.103-62.125c0.129-2.521,0.323-5.042,0.323-7.499
	C357.851,46.739,310.4,0,252.024,0c-36.396,0-69.947,18.489-89.147,48.162c-12.8-10.667-28.962-16.549-46.028-16.549
	c-40.016,0-72.663,32.517-72.663,72.663c0,0.905,0,1.939,0.065,2.909c-26.376,11.313-44.154,37.495-44.154,66.715
	c0,40.016,32.517,72.663,72.663,72.663h112.743v59.216H164.04c-6.012,0-10.925,4.848-10.925,10.925v21.657H20.461
	c-6.012,0-10.925,4.849-10.925,10.925c0,6.012,4.848,10.925,10.925,10.925h132.655v21.657c0,6.012,4.848,10.925,10.925,10.925
	h65.034c6.012,0,10.925-4.848,10.925-10.925V360.21h132.461c6.012,0,10.925-4.848,10.925-10.925
	C383.321,343.143,378.408,338.295,372.461,338.295z M218.15,370.812h-43.184v-43.249h43.184L218.15,370.812L218.15,370.812z
	 M58.99,125.091c5.301-1.616,8.727-6.788,7.822-12.283c0-0.129,0-0.323-0.065-0.388c0,0-7.046-56.242,50.101-58.893
	c15.709-0.711,30.19,7.111,39.952,19.523c2.327,3.038,6.077,4.59,9.891,4.073c3.814-0.453,7.046-2.844,8.663-6.335
	c13.511-29.737,43.636-49.002,76.735-49.002c46.352,0,83.976,37.042,83.976,82.424c0,4.008-0.323,8.016-0.905,12.024
	c-0.711,4.784,1.745,9.503,6.206,11.507c17.907,8.275,29.543,26.376,29.543,46.028c0,27.992-22.82,50.747-50.747,50.747H72.824
	c-27.992,0-50.747-22.82-50.747-50.747C21.948,151.79,36.752,131.943,58.99,125.091z"/>
</svg>
