<svg width="250" height="250" viewBox="0 0 250 250" fill="none" xmlns="http://www.w3.org/2000/svg">
<path d="M189.653 93.6155H116.422V105.385H189.653V93.6155Z" fill="#1A5591"/>
<path d="M189.654 119.115H90.2695V130.885H189.654V119.115Z" fill="#1A5591"/>
<path d="M189.653 144.615H142.576V156.385H189.653V144.615Z" fill="#1A5591"/>
<path d="M121.523 159C126.218 159 130.023 155.194 130.023 150.5C130.023 145.806 126.218 142 121.523 142C116.829 142 113.023 145.806 113.023 150.5C113.023 155.194 116.829 159 121.523 159Z" fill="#1A5591"/>
<path d="M69.3457 134.154C74.0401 134.154 77.8457 130.348 77.8457 125.654C77.8457 120.96 74.0401 117.154 69.3457 117.154C64.6513 117.154 60.8457 120.96 60.8457 125.654C60.8457 130.348 64.6513 134.154 69.3457 134.154Z" fill="#1A5591"/>
<path d="M95.1055 108C99.7999 108 103.605 104.195 103.605 99.5001C103.605 94.8057 99.7999 91.0001 95.1055 91.0001C90.411 91.0001 86.6055 94.8057 86.6055 99.5001C86.6055 104.195 90.411 108 95.1055 108Z" fill="#1A5591"/>
</svg>
